<svg id="Layer_1" data-name="Layer 1" xmlns="http://www.w3.org/2000/svg" xmlns:xlink="http://www.w3.org/1999/xlink" viewBox="0 0 612 792"><defs><style>.cls-1{fill:#3b58a8;}.cls-1,.cls-2,.cls-3{stroke:#787878;}.cls-1,.cls-2,.cls-3,.cls-4,.cls-5{stroke-miterlimit:10;stroke-width:0.2px;}.cls-2{fill:url(#linear-gradient);}.cls-3{fill:url(#linear-gradient-2);}.cls-4{stroke:#696969;fill:url(#linear-gradient-3);}.cls-5{stroke:#9d9d9d;fill:url(#linear-gradient-4);}</style><linearGradient id="linear-gradient" x1="338" y1="326.61" x2="382.76" y2="361.49" gradientUnits="userSpaceOnUse"><stop offset="0" stop-color="#6078b9"/><stop offset="1" stop-color="#3b58a8"/></linearGradient><linearGradient id="linear-gradient-2" x1="280.05" y1="351.7" x2="336.54" y2="298.6" gradientUnits="userSpaceOnUse"><stop offset="0.15" stop-color="#3b58a8"/><stop offset="0.85" stop-color="#d9dfee"/><stop offset="1" stop-color="#b3bfdd"/></linearGradient><linearGradient id="linear-gradient-3" x1="388.38" y1="344.93" x2="405.85" y2="252.22" gradientUnits="userSpaceOnUse"><stop offset="0" stop-color="#fff"/><stop offset="0.02" stop-color="#f0f3f9"/><stop offset="0.13" stop-color="#b1bddc"/><stop offset="0.22" stop-color="#7f92c6"/><stop offset="0.3" stop-color="#5b74b6"/><stop offset="0.37" stop-color="#4561ad"/><stop offset="0.41" stop-color="#3d5aa9"/><stop offset="0.76" stop-color="#3d5aa9"/><stop offset="1" stop-color="#3b58a8"/></linearGradient><linearGradient id="linear-gradient-4" x1="384.2" y1="427.6" x2="443.66" y2="278.1" gradientUnits="userSpaceOnUse"><stop offset="0.62" stop-color="#4560ac"/><stop offset="0.77" stop-color="#405daa"/></linearGradient></defs><path class="cls-1" d="M261.74,225.45a180.93,180.93,0,0,0-17.7,3.91c-7.79,2.14-12.49,3.43-17.87,6.13a62.87,62.87,0,0,0-19.06,15.15c-9.72,11.4-12.65,23.2-14.43,30.76a92.16,92.16,0,0,0-1.4,32.17c1.86,14.65,7.06,25.67,11.91,36.13,3.39,7.32,7.54,14.61,7.87,15.19,1,1.8,3.36,5.83,6.64,10.85,2.77,4.25,5.39,7.83,10.51,14.81,5.71,7.78,22.48,27.1,28.22,31.62A31.65,31.65,0,0,0,262,426a26.49,26.49,0,0,0,6.3,2.3c-.8-1.09-2-2.71-3.58-4.64-1.85-2.29-2.81-3.31-4.68-5.53,0,0-2.45-2.92-5.06-6.32-2.75-3.59-4.63-6.37-6.64-9.34-3.64-5.39-6.22-9.64-7-10.9-1.48-2.45-4.67-7.76-7.92-14.17-2.2-4.36-4.5-9.62-8.93-20.89-2-5.16-6.53-16.59-9-25.36-3-10.69-9-31.52-1.71-55.15a79,79,0,0,1,24.52-37.28,76.09,76.09,0,0,1,19.14-11.63Z"/><path class="cls-1" d="M259.17,247.06a24.28,24.28,0,0,1,6.3-2.93,26.09,26.09,0,0,1,6.64-1,37.87,37.87,0,0,1,9.83.76,40.68,40.68,0,0,1,10.8,4.22,50,50,0,0,1,7.67,4.51c.69.51,1.59,1.22,2.55,2.08,3.32,3,9.67,12.45,13.66,18.43,1.34,2,14.63,21.35,14.85,21.71,1,1.7,4,6.07,4.25,6.29s.14.17.13.21-.58.17-.88.17c-.64,0-1.28.15-1.92.15-1.74,0-3.49.2-5.23.28-3,.13-2.47.14-6.11.31l-4.65.21-3.76.16c-1.4-1.59-29.09-48.18-47.53-54.08A37.32,37.32,0,0,0,259.17,247.06Z"/><path class="cls-1" d="M388.87,241.53a38.92,38.92,0,0,0-15.13,6,29.74,29.74,0,0,0-5,4.66,57.13,57.13,0,0,0-6.2,7.79c-2.05,3.2-6.34,9.47-6.44,9.58q-5.85,9-11.68,18.06L331.3,272.4l8.1-9.7c1.43-1.54,3.48-3.65,6.07-6A95.18,95.18,0,0,1,358,246.87C371.55,238.56,388.85,241.27,388.87,241.53Z"/><path class="cls-2" d="M343.81,313.06l-12.7,18c3.91,4.87,6.92,8.83,9,11.62a77.69,77.69,0,0,0,5,6.3,68.14,68.14,0,0,0,6.51,6.34s9.86,7.95,32.57,7.75c1.24,0,2.49-.07,2.49-.07l1.15-.05c-1.32-.54-3.08-1.3-5.11-2.3a49,49,0,0,1-5.45-3,42.22,42.22,0,0,1-6.14-5.1,73,73,0,0,1-5.38-5.64c-.69-.79-1.86-2.14-3.2-3.94a69,69,0,0,1-4.29-6.63c-2.5-4.17-1.69-2.54-6.34-10.08-1.9-3.08-4-6.57-6.3-10.43Z"/><path class="cls-3" d="M313.31,302.63l22.49-1.2c-1.05,2-10.41,16.67-14,22-4,5.75-14,19.48-15.43,21-3.62,3.82-7.3,7.7-11.68,10.41-7.73,4.78-15.67,4.71-24.35,4.63a23.46,23.46,0,0,1-8-1.31,22,22,0,0,1-4.05-2A38.47,38.47,0,0,0,264.4,355a37.06,37.06,0,0,0,6.86-2.59c1.06-.54,3.65-1.94,8.4-6.14a87.58,87.58,0,0,0,7.64-7.61C292.31,333,301.84,320.09,313.31,302.63Z"/><path class="cls-4" d="M379,259.45a22.08,22.08,0,0,1,7.85-3.19,22.73,22.73,0,0,1,13.22,1.53c5.21,2.32,7.85,6,11.23,10.78a54.37,54.37,0,0,1,8.55,18.83,55.41,55.41,0,0,1,.81,20.43,64.31,64.31,0,0,1-7.83,23.32c-5,9.34-9,12.08-10.55,13a20.75,20.75,0,0,1-8.79,3.17,21.72,21.72,0,0,1-14.82-4.16,42.33,42.33,0,0,0,9.4-8.67,44.74,44.74,0,0,0,7.27-13.79c3.12-8.72,3.39-16,3.58-22.21s.3-10.08-1-15.19a36.51,36.51,0,0,0-8.3-15.89A35.38,35.38,0,0,0,379,259.45Z"/><path class="cls-5" d="M380.38,426.64a85,85,0,0,0,8.29-8c2.25-2.51,4-4.81,7.44-9.42,2.35-3.14,5.15-6.88,8.57-12.08,1.28-1.95,2.65-4,4.34-6.9.63-1.07,3.36-5.71,6.49-12.3,2.74-5.75,4.51-10.32,5.1-11.85a173.29,173.29,0,0,0,6.2-20.32,223.83,223.83,0,0,0,5.1-24.76c3.34-24.27-.12-42.86-.21-42.85s1.86,20.6-1.38,36.28c-1.09,5.3-2.7,11.4-2.7,11.4A125.88,125.88,0,0,1,424,338.12a72.69,72.69,0,0,1-6.1,13.25c-4.35,7.3-7.84,10-9.13,10.93a27.29,27.29,0,0,1-3.87,2.34Q392.63,395.63,380.38,426.64Z"/><path class="cls-1" d="M130.83,464.87l.79,0h2.5c.34,0,.84,0,1.49,0l-12.16,14.17,13.38,15.27h-5.49l-10.53-12q-5,6-10,11.95l-5.24-.05c7.7-9.27,24.2-28.89,24.2-28.82a1,1,0,0,1,.42-.43A1.48,1.48,0,0,1,130.83,464.87Z"/><path class="cls-1" d="M152,471s1.29,0,3.88,0L169,494.27h-4.7l-3.27-6.41-11,.07,1.57-3.48,7.63,0-7.15-13.15-.12-.24.31-.08Z"/><path class="cls-1" d="M139.24,494.25l4.86,0q5-9.63,10-19.27L152,471.3Q145.62,482.78,139.24,494.25Z"/><path class="cls-1" d="M248.15,471s1.29,0,3.88,0l13,23.36h-4.62q-1.63-3.22-3.28-6.45l-11,.06,1.57-3.48,7.62,0-7.14-13.15-.12-.24.31-.08Z"/><path class="cls-1" d="M235.42,494.31h4.76l10.09-19.08c-.71-1.31-1.42-2.63-2.14-3.94Q241.79,482.81,235.42,494.31Z"/><path class="cls-1" d="M449.8,471.22s1.29,0,3.88,0q6.54,11.69,13.1,23.35l-4.69.06-3.26-6.51-11,.07,1.56-3.48,7.63,0-7.14-13.15-.12-.24.31-.08Z"/><path class="cls-1" d="M437.13,494.42h4.71l10.08-19-2.14-3.94Z"/><path class="cls-1" d="M176.72,494.27h3.74l0-19.19,17.47-.18,0,15.3-.33.41-.72.34-4.26.05-8.52.08v3.2l14.25-.18,1.23-.42.66-.55.75-.78.53-.72.31-1,.12-.82.08-14.34-.08-.89-.38-.76-.42-.75-.52-.51-.67-.6-.78-.29-.64-.16-.81,0H176.85q.14,11.18-.12,22.45Z"/><path class="cls-1" d="M225.55,471.3v-.17l4-.09,0,21.83-.3.64-.24.28a1.54,1.54,0,0,1-.27.22,3,3,0,0,1-.3.17,2.22,2.22,0,0,1-.31.12,1.71,1.71,0,0,1-.75.06H211.89a1.9,1.9,0,0,1-1-.26,3.07,3.07,0,0,1-.59-.56l-.55-.62-.24-.85-.05-8,4.11,0c0,.88,0,1.77,0,2.66,0,1.3,0,2.59,0,3.85h2.8l8.78.05.27-.38.15-.45c-.06-12.41-.08-18.19-.09-18.3Z"/><path class="cls-1" d="M265.47,471.11l4.47-.13,7.12,8-2.63,2.7q-4.38-5.16-8.75-10.33l-.14-.13Z"/><path class="cls-1" d="M287.54,471a.1.1,0,0,1,0-.06c0-.07.29,0,.61,0l.16,0c.4.05,1,.06,1.82.09l1.19.06h.6q-5.46,6.38-10.94,12.74l-.3,10.24h-3.93l-.08-10.47,10.68-12.37Z"/><path class="cls-1" d="M298.34,471.28l21.72-.09v3.58L302,475l.1,15.86L320,491l0,3.38-21.52.06q0-11.62-.08-23.26"/><path class="cls-1" d="M318.91,480.43l-13.87,0v3.93l13.87,0Z"/><path class="cls-1" d="M324.28,471.11h4.65q6,11.63,12.08,23.25h-4.66Z"/><path class="cls-1" d="M339.3,487l2.73,3.78q5-9.57,9.94-19.14l-4.34-.1Z"/><path class="cls-1" d="M396.84,494.45l4.18,0q0-11.46.07-22.9l12.42,13.53,15.65-18.81-4.86-.09-11.07,13.28L401.1,466.16h-4.16Q396.88,480.32,396.84,494.45Z"/><path class="cls-1" d="M429.62,470.6l-.24.27c-.17.2-.32.34-.38.4l-3.66,3.45-.22,19.6h4.54Q429.65,482.46,429.62,470.6Z"/><path class="cls-1" d="M477,477.08l4.15,0,0,17.12-4.23,0Q477,485.63,477,477.08Z"/><path class="cls-1" d="M491,470.79c0,1.39,0,2.78,0,4.18l-24,0c0-1.41,0-2.82,0-4.22Z"/><path class="cls-1" d="M497,471h4.05q.07,11.67.14,23.33l-4.24-.07Q497,482.62,497,471Z"/><path class="cls-1" d="M504,480.09c0,1.29,0,2.59,0,3.89l14.15,0q0,5.21-.07,10.4l3.92,0,.12-23.54-3.89.05c0,3-.07,6.09-.11,9.13Z"/><path class="cls-1" d="M118.88,474.43q-4.09-4.86-8.2-9.7l-5,.06L116,477.43Z"/></svg>